{
	"asset":{
		"generator":"Khronos glTF Blender I/O v4.5.48",
		"version":"2.0"
	},
	"scene":0,
	"scenes":[
		{
			"name":"Scene",
			"nodes":[
				0,
				1,
				2,
				3,
				4,
				5,
				6
			]
		}
	],
	"nodes":[
		{
			"mesh":0,
			"name":"Intake",
			"rotation":[
				0,
				-1,
				0,
				7.549790126404332e-08
			],
			"scale":[
				0.37864357233047485,
				0.37864357233047485,
				0.37864357233047485
			],
			"translation":[
				-0.9479632377624512,
				-0.6476337909698486,
				-2.215648651123047
			]
		},
		{
			"mesh":1,
			"name":"Liftoff",
			"rotation":[
				0,
				-0.7071068286895752,
				0.7071068286895752,
				5.338508302088485e-08
			],
			"scale":[
				0.8063536286354065,
				0.8063536286354065,
				0.8063536286354065
			],
			"translation":[
				0,
				0,
				6.805343151092529
			]
		},
		{
			"mesh":2,
			"name":"Body",
			"rotation":[
				0,
				-1,
				0,
				7.549790126404332e-08
			],
			"scale":[
				1,
				1,
				7.5
			]
		},
		{
			"mesh":3,
			"name":"Back Wings",
			"rotation":[
				0,
				-1,
				0,
				7.549790126404332e-08
			],
			"scale":[
				0.3287534713745117,
				0.3287534713745117,
				0.3287534713745117
			],
			"translation":[
				-1.1321476697921753,
				0.5682984590530396,
				6.929671764373779
			]
		},
		{
			"mesh":4,
			"name":"Cockpit",
			"rotation":[
				0,
				-1,
				0,
				7.549790126404332e-08
			],
			"scale":[
				0.6114927530288696,
				1.0263054370880127,
				1.1969361305236816
			],
			"translation":[
				0.0007140203379094601,
				0.14432910084724426,
				-2.7390878200531006
			]
		},
		{
			"mesh":5,
			"name":"Plane",
			"rotation":[
				0,
				0,
				0.7071068286895752,
				0.7071068286895752
			],
			"translation":[
				-7.4184489250183105,
				0.20603173971176147,
				4.7760515213012695
			]
		},
		{
			"mesh":6,
			"name":"Plane.001",
			"rotation":[
				0,
				0,
				0.7071068286895752,
				0.7071068286895752
			],
			"translation":[
				-7.4184489250183105,
				0.20603173971176147,
				4.7760515213012695
			]
		}
	],
	"materials":[
		{
			"doubleSided":true,
			"name":"Plane_Engine",
			"pbrMetallicRoughness":{
				"baseColorTexture":{
					"index":0
				},
				"metallicFactor":0.1483694165945053,
				"roughnessFactor":0.9216738939285278
			}
		},
		{
			"doubleSided":true,
			"name":"Plane_Base",
			"pbrMetallicRoughness":{
				"baseColorTexture":{
					"index":1
				},
				"metallicFactor":0.72886723279953,
				"roughnessFactor":0.6420633792877197
			}
		},
		{
			"doubleSided":true,
			"name":"Material",
			"pbrMetallicRoughness":{
				"baseColorTexture":{
					"index":2
				},
				"metallicFactor":0.9318181872367859,
				"roughnessFactor":0.0985570102930069
			}
		},
		{
			"doubleSided":true,
			"emissiveFactor":[
				0.9999997615814209,
				0,
				0.003955107636276822
			],
			"name":"Material.001",
			"pbrMetallicRoughness":{
				"baseColorFactor":[
					0.8004403114318848,
					0.0016469021793454885,
					0,
					1
				],
				"metallicFactor":0,
				"roughnessFactor":0.5
			}
		},
		{
			"doubleSided":true,
			"emissiveFactor":[
				0,
				0.9999997615814209,
				0.007813427597062717
			],
			"name":"Material.002",
			"pbrMetallicRoughness":{
				"baseColorFactor":[
					0,
					0.8002825975418091,
					0.005725111812353134,
					1
				],
				"metallicFactor":0,
				"roughnessFactor":0.5
			}
		}
	],
	"meshes":[
		{
			"name":"Cube.003",
			"primitives":[
				{
					"attributes":{
						"POSITION":0,
						"NORMAL":1,
						"TEXCOORD_0":2
					},
					"indices":3,
					"material":0
				}
			]
		},
		{
			"name":"Cylinder",
			"primitives":[
				{
					"attributes":{
						"POSITION":4,
						"NORMAL":5,
						"TEXCOORD_0":6
					},
					"indices":7,
					"material":0
				}
			]
		},
		{
			"name":"Mesh",
			"primitives":[
				{
					"attributes":{
						"POSITION":8,
						"NORMAL":9,
						"TEXCOORD_0":10
					},
					"indices":11,
					"material":1
				}
			]
		},
		{
			"name":"Cube.001",
			"primitives":[
				{
					"attributes":{
						"POSITION":12,
						"NORMAL":13,
						"TEXCOORD_0":14
					},
					"indices":15,
					"material":1
				}
			]
		},
		{
			"name":"Mesh",
			"primitives":[
				{
					"attributes":{
						"POSITION":16,
						"NORMAL":17,
						"TEXCOORD_0":18
					},
					"indices":19,
					"material":2
				}
			]
		},
		{
			"name":"Plane",
			"primitives":[
				{
					"attributes":{
						"POSITION":20,
						"NORMAL":21,
						"TEXCOORD_0":22
					},
					"indices":23,
					"material":3
				}
			]
		},
		{
			"name":"Plane.001",
			"primitives":[
				{
					"attributes":{
						"POSITION":24,
						"NORMAL":25,
						"TEXCOORD_0":26
					},
					"indices":27,
					"material":4
				}
			]
		}
	],
	"textures":[
		{
			"sampler":0,
			"source":0
		},
		{
			"sampler":0,
			"source":1
		},
		{
			"sampler":0,
			"source":0
		}
	],
	"images":[
		{
			"mimeType":"image/png",
			"name":"plane_details",
			"uri":"plane_details.png"
		},
		{
			"mimeType":"image/png",
			"name":"plane_base_color",
			"uri":"plane_base_color.png"
		}
	],
	"accessors":[
		{
			"bufferView":0,
			"componentType":5126,
			"count":266,
			"max":[
				2.1503894329071045,
				1.4952456951141357,
				0.27277374267578125
			],
			"min":[
				-7.157541275024414,
				-2.08212947845459,
				-19.375207901000977
			],
			"type":"VEC3"
		},
		{
			"bufferView":1,
			"componentType":5126,
			"count":266,
			"type":"VEC3"
		},
		{
			"bufferView":2,
			"componentType":5126,
			"count":266,
			"type":"VEC2"
		},
		{
			"bufferView":3,
			"componentType":5123,
			"count":816,
			"type":"SCALAR"
		},
		{
			"bufferView":4,
			"componentType":5126,
			"count":370,
			"max":[
				1,
				1,
				1
			],
			"min":[
				-1,
				-0.9497998356819153,
				-1
			],
			"type":"VEC3"
		},
		{
			"bufferView":5,
			"componentType":5126,
			"count":370,
			"type":"VEC3"
		},
		{
			"bufferView":6,
			"componentType":5126,
			"count":370,
			"type":"VEC2"
		},
		{
			"bufferView":7,
			"componentType":5123,
			"count":1152,
			"type":"SCALAR"
		},
		{
			"bufferView":8,
			"componentType":5126,
			"count":3886,
			"max":[
				7.4477643966674805,
				1.2023307085037231,
				1.024253010749817
			],
			"min":[
				-7.447763919830322,
				-1.0906293392181396,
				-0.9516579508781433
			],
			"type":"VEC3"
		},
		{
			"bufferView":9,
			"componentType":5126,
			"count":3886,
			"type":"VEC3"
		},
		{
			"bufferView":10,
			"componentType":5126,
			"count":3886,
			"type":"VEC2"
		},
		{
			"bufferView":11,
			"componentType":5123,
			"count":16020,
			"type":"SCALAR"
		},
		{
			"bufferView":12,
			"componentType":5126,
			"count":92,
			"max":[
				5.230722904205322,
				7.264750003814697,
				9.51512336730957
			],
			"min":[
				-12.118247032165527,
				0.3299161195755005,
				-3.7447121143341064
			],
			"type":"VEC3"
		},
		{
			"bufferView":13,
			"componentType":5126,
			"count":92,
			"type":"VEC3"
		},
		{
			"bufferView":14,
			"componentType":5126,
			"count":92,
			"type":"VEC2"
		},
		{
			"bufferView":15,
			"componentType":5123,
			"count":360,
			"type":"SCALAR"
		},
		{
			"bufferView":16,
			"componentType":5126,
			"count":454,
			"max":[
				1.0779714584350586,
				1.1983317136764526,
				1.4053764343261719
			],
			"min":[
				-1.0779714584350586,
				0.27168992161750793,
				-1.5136693716049194
			],
			"type":"VEC3"
		},
		{
			"bufferView":17,
			"componentType":5126,
			"count":454,
			"type":"VEC3"
		},
		{
			"bufferView":18,
			"componentType":5126,
			"count":454,
			"type":"VEC2"
		},
		{
			"bufferView":19,
			"componentType":5123,
			"count":1836,
			"type":"SCALAR"
		},
		{
			"bufferView":20,
			"componentType":5126,
			"count":24,
			"max":[
				0.032167572528123856,
				0.0715424194931984,
				0.6938869953155518
			],
			"min":[
				-0.06155864894390106,
				-0.24564801156520844,
				-0.6168661117553711
			],
			"type":"VEC3"
		},
		{
			"bufferView":21,
			"componentType":5126,
			"count":24,
			"type":"VEC3"
		},
		{
			"bufferView":22,
			"componentType":5126,
			"count":24,
			"type":"VEC2"
		},
		{
			"bufferView":23,
			"componentType":5123,
			"count":36,
			"type":"SCALAR"
		},
		{
			"bufferView":24,
			"componentType":5126,
			"count":24,
			"max":[
				0.032168686389923096,
				-14.591251373291016,
				0.6938846111297607
			],
			"min":[
				-0.061557523906230927,
				-14.908442497253418,
				-0.6168684363365173
			],
			"type":"VEC3"
		},
		{
			"bufferView":25,
			"componentType":5126,
			"count":24,
			"type":"VEC3"
		},
		{
			"bufferView":26,
			"componentType":5126,
			"count":24,
			"type":"VEC2"
		},
		{
			"bufferView":27,
			"componentType":5123,
			"count":36,
			"type":"SCALAR"
		}
	],
	"bufferViews":[
		{
			"buffer":0,
			"byteLength":3192,
			"byteOffset":0,
			"target":34962
		},
		{
			"buffer":0,
			"byteLength":3192,
			"byteOffset":3192,
			"target":34962
		},
		{
			"buffer":0,
			"byteLength":2128,
			"byteOffset":6384,
			"target":34962
		},
		{
			"buffer":0,
			"byteLength":1632,
			"byteOffset":8512,
			"target":34963
		},
		{
			"buffer":0,
			"byteLength":4440,
			"byteOffset":10144,
			"target":34962
		},
		{
			"buffer":0,
			"byteLength":4440,
			"byteOffset":14584,
			"target":34962
		},
		{
			"buffer":0,
			"byteLength":2960,
			"byteOffset":19024,
			"target":34962
		},
		{
			"buffer":0,
			"byteLength":2304,
			"byteOffset":21984,
			"target":34963
		},
		{
			"buffer":0,
			"byteLength":46632,
			"byteOffset":24288,
			"target":34962
		},
		{
			"buffer":0,
			"byteLength":46632,
			"byteOffset":70920,
			"target":34962
		},
		{
			"buffer":0,
			"byteLength":31088,
			"byteOffset":117552,
			"target":34962
		},
		{
			"buffer":0,
			"byteLength":32040,
			"byteOffset":148640,
			"target":34963
		},
		{
			"buffer":0,
			"byteLength":1104,
			"byteOffset":180680,
			"target":34962
		},
		{
			"buffer":0,
			"byteLength":1104,
			"byteOffset":181784,
			"target":34962
		},
		{
			"buffer":0,
			"byteLength":736,
			"byteOffset":182888,
			"target":34962
		},
		{
			"buffer":0,
			"byteLength":720,
			"byteOffset":183624,
			"target":34963
		},
		{
			"buffer":0,
			"byteLength":5448,
			"byteOffset":184344,
			"target":34962
		},
		{
			"buffer":0,
			"byteLength":5448,
			"byteOffset":189792,
			"target":34962
		},
		{
			"buffer":0,
			"byteLength":3632,
			"byteOffset":195240,
			"target":34962
		},
		{
			"buffer":0,
			"byteLength":3672,
			"byteOffset":198872,
			"target":34963
		},
		{
			"buffer":0,
			"byteLength":288,
			"byteOffset":202544,
			"target":34962
		},
		{
			"buffer":0,
			"byteLength":288,
			"byteOffset":202832,
			"target":34962
		},
		{
			"buffer":0,
			"byteLength":192,
			"byteOffset":203120,
			"target":34962
		},
		{
			"buffer":0,
			"byteLength":72,
			"byteOffset":203312,
			"target":34963
		},
		{
			"buffer":0,
			"byteLength":288,
			"byteOffset":203384,
			"target":34962
		},
		{
			"buffer":0,
			"byteLength":288,
			"byteOffset":203672,
			"target":34962
		},
		{
			"buffer":0,
			"byteLength":192,
			"byteOffset":203960,
			"target":34962
		},
		{
			"buffer":0,
			"byteLength":72,
			"byteOffset":204152,
			"target":34963
		}
	],
	"samplers":[
		{
			"magFilter":9729,
			"minFilter":9987
		}
	],
	"buffers":[
		{
			"byteLength":204224,
			"uri":"plane.bin"
		}
	]
}
