{
	"asset":{
		"generator":"Khronos glTF Blender I/O v4.5.48",
		"version":"2.0"
	},
	"scene":0,
	"scenes":[
		{
			"name":"Scene",
			"nodes":[
				0,
				1,
				2,
				3,
				4
			]
		}
	],
	"nodes":[
		{
			"mesh":0,
			"name":"Intake",
			"rotation":[
				0,
				-1,
				0,
				7.549790126404332e-08
			],
			"scale":[
				0.37864357233047485,
				0.37864357233047485,
				0.37864357233047485
			],
			"translation":[
				-0.9479632377624512,
				-0.6476337909698486,
				-2.215648651123047
			]
		},
		{
			"mesh":1,
			"name":"Liftoff",
			"rotation":[
				0,
				-0.7071068286895752,
				0.7071068286895752,
				5.338508302088485e-08
			],
			"scale":[
				0.8063536286354065,
				0.8063536286354065,
				0.8063536286354065
			],
			"translation":[
				0,
				0,
				6.805343151092529
			]
		},
		{
			"mesh":2,
			"name":"Body",
			"rotation":[
				0,
				-1,
				0,
				7.549790126404332e-08
			],
			"scale":[
				1,
				1,
				7.5
			]
		},
		{
			"mesh":3,
			"name":"Back Wings",
			"rotation":[
				0,
				-1,
				0,
				7.549790126404332e-08
			],
			"scale":[
				0.3287534713745117,
				0.3287534713745117,
				0.3287534713745117
			],
			"translation":[
				-1.1321476697921753,
				0.5682984590530396,
				6.929671764373779
			]
		},
		{
			"mesh":4,
			"name":"Cockpit",
			"rotation":[
				0,
				-1,
				0,
				7.549790126404332e-08
			],
			"scale":[
				0.6114927530288696,
				1.0263054370880127,
				1.1969361305236816
			],
			"translation":[
				0.0007140203379094601,
				0.14432910084724426,
				-2.7390878200531006
			]
		}
	],
	"materials":[
		{
			"doubleSided":true,
			"name":"Plane_Engine",
			"pbrMetallicRoughness":{
				"baseColorTexture":{
					"index":0
				},
				"metallicFactor":0.1483694165945053,
				"roughnessFactor":0.9216738939285278
			}
		},
		{
			"doubleSided":true,
			"name":"Plane_Base",
			"pbrMetallicRoughness":{
				"baseColorTexture":{
					"index":1
				},
				"metallicFactor":0.72886723279953,
				"roughnessFactor":0.6420633792877197
			}
		},
		{
			"doubleSided":true,
			"name":"Material",
			"pbrMetallicRoughness":{
				"baseColorTexture":{
					"index":2
				},
				"metallicFactor":0.9318181872367859,
				"roughnessFactor":0.0985570102930069
			}
		}
	],
	"meshes":[
		{
			"name":"Cube.003",
			"primitives":[
				{
					"attributes":{
						"POSITION":0,
						"NORMAL":1,
						"TEXCOORD_0":2
					},
					"indices":3,
					"material":0
				}
			]
		},
		{
			"name":"Cylinder",
			"primitives":[
				{
					"attributes":{
						"POSITION":4,
						"NORMAL":5,
						"TEXCOORD_0":6
					},
					"indices":7,
					"material":0
				}
			]
		},
		{
			"name":"Cube.006",
			"primitives":[
				{
					"attributes":{
						"POSITION":8,
						"NORMAL":9,
						"TEXCOORD_0":10
					},
					"indices":11,
					"material":1
				}
			]
		},
		{
			"name":"Cube.001",
			"primitives":[
				{
					"attributes":{
						"POSITION":12,
						"NORMAL":13,
						"TEXCOORD_0":14
					},
					"indices":15,
					"material":1
				}
			]
		},
		{
			"name":"Cube.008",
			"primitives":[
				{
					"attributes":{
						"POSITION":16,
						"NORMAL":17,
						"TEXCOORD_0":18
					},
					"indices":19,
					"material":2
				}
			]
		}
	],
	"textures":[
		{
			"sampler":0,
			"source":0
		},
		{
			"sampler":0,
			"source":1
		},
		{
			"sampler":0,
			"source":0
		}
	],
	"images":[
		{
			"mimeType":"image/png",
			"name":"plane_details",
			"uri":"plane_details.png"
		},
		{
			"mimeType":"image/png",
			"name":"plane_base_color",
			"uri":"plane_base_color.png"
		}
	],
	"accessors":[
		{
			"bufferView":0,
			"componentType":5126,
			"count":266,
			"max":[
				2.1503894329071045,
				1.4952456951141357,
				0.27277374267578125
			],
			"min":[
				-7.157541275024414,
				-2.08212947845459,
				-19.375207901000977
			],
			"type":"VEC3"
		},
		{
			"bufferView":1,
			"componentType":5126,
			"count":266,
			"type":"VEC3"
		},
		{
			"bufferView":2,
			"componentType":5126,
			"count":266,
			"type":"VEC2"
		},
		{
			"bufferView":3,
			"componentType":5123,
			"count":816,
			"type":"SCALAR"
		},
		{
			"bufferView":4,
			"componentType":5126,
			"count":370,
			"max":[
				1,
				1,
				1
			],
			"min":[
				-1,
				-0.9497998356819153,
				-1
			],
			"type":"VEC3"
		},
		{
			"bufferView":5,
			"componentType":5126,
			"count":370,
			"type":"VEC3"
		},
		{
			"bufferView":6,
			"componentType":5126,
			"count":370,
			"type":"VEC2"
		},
		{
			"bufferView":7,
			"componentType":5123,
			"count":1152,
			"type":"SCALAR"
		},
		{
			"bufferView":8,
			"componentType":5126,
			"count":824,
			"max":[
				7.480284214019775,
				1.2360349893569946,
				1.0248489379882812
			],
			"min":[
				-7.480284214019775,
				-1.1266334056854248,
				-0.951657772064209
			],
			"type":"VEC3"
		},
		{
			"bufferView":9,
			"componentType":5126,
			"count":824,
			"type":"VEC3"
		},
		{
			"bufferView":10,
			"componentType":5126,
			"count":824,
			"type":"VEC2"
		},
		{
			"bufferView":11,
			"componentType":5123,
			"count":4014,
			"type":"SCALAR"
		},
		{
			"bufferView":12,
			"componentType":5126,
			"count":92,
			"max":[
				5.230722904205322,
				7.264750003814697,
				9.51512336730957
			],
			"min":[
				-12.118247032165527,
				0.3299161195755005,
				-3.7447121143341064
			],
			"type":"VEC3"
		},
		{
			"bufferView":13,
			"componentType":5126,
			"count":92,
			"type":"VEC3"
		},
		{
			"bufferView":14,
			"componentType":5126,
			"count":92,
			"type":"VEC2"
		},
		{
			"bufferView":15,
			"componentType":5123,
			"count":360,
			"type":"SCALAR"
		},
		{
			"bufferView":16,
			"componentType":5126,
			"count":95,
			"max":[
				1.1041688919067383,
				1.2248927354812622,
				1.4149869680404663
			],
			"min":[
				-1.1041688919067383,
				0.27168989181518555,
				-1.5194770097732544
			],
			"type":"VEC3"
		},
		{
			"bufferView":17,
			"componentType":5126,
			"count":95,
			"type":"VEC3"
		},
		{
			"bufferView":18,
			"componentType":5126,
			"count":95,
			"type":"VEC2"
		},
		{
			"bufferView":19,
			"componentType":5123,
			"count":450,
			"type":"SCALAR"
		}
	],
	"bufferViews":[
		{
			"buffer":0,
			"byteLength":3192,
			"byteOffset":0,
			"target":34962
		},
		{
			"buffer":0,
			"byteLength":3192,
			"byteOffset":3192,
			"target":34962
		},
		{
			"buffer":0,
			"byteLength":2128,
			"byteOffset":6384,
			"target":34962
		},
		{
			"buffer":0,
			"byteLength":1632,
			"byteOffset":8512,
			"target":34963
		},
		{
			"buffer":0,
			"byteLength":4440,
			"byteOffset":10144,
			"target":34962
		},
		{
			"buffer":0,
			"byteLength":4440,
			"byteOffset":14584,
			"target":34962
		},
		{
			"buffer":0,
			"byteLength":2960,
			"byteOffset":19024,
			"target":34962
		},
		{
			"buffer":0,
			"byteLength":2304,
			"byteOffset":21984,
			"target":34963
		},
		{
			"buffer":0,
			"byteLength":9888,
			"byteOffset":24288,
			"target":34962
		},
		{
			"buffer":0,
			"byteLength":9888,
			"byteOffset":34176,
			"target":34962
		},
		{
			"buffer":0,
			"byteLength":6592,
			"byteOffset":44064,
			"target":34962
		},
		{
			"buffer":0,
			"byteLength":8028,
			"byteOffset":50656,
			"target":34963
		},
		{
			"buffer":0,
			"byteLength":1104,
			"byteOffset":58684,
			"target":34962
		},
		{
			"buffer":0,
			"byteLength":1104,
			"byteOffset":59788,
			"target":34962
		},
		{
			"buffer":0,
			"byteLength":736,
			"byteOffset":60892,
			"target":34962
		},
		{
			"buffer":0,
			"byteLength":720,
			"byteOffset":61628,
			"target":34963
		},
		{
			"buffer":0,
			"byteLength":1140,
			"byteOffset":62348,
			"target":34962
		},
		{
			"buffer":0,
			"byteLength":1140,
			"byteOffset":63488,
			"target":34962
		},
		{
			"buffer":0,
			"byteLength":760,
			"byteOffset":64628,
			"target":34962
		},
		{
			"buffer":0,
			"byteLength":900,
			"byteOffset":65388,
			"target":34963
		}
	],
	"samplers":[
		{
			"magFilter":9729,
			"minFilter":9987
		}
	],
	"buffers":[
		{
			"byteLength":66288,
			"uri":"plane.bin"
		}
	]
}
