{
	"asset":{
		"generator":"Khronos glTF Blender I/O v4.5.48",
		"version":"2.0"
	},
	"scene":0,
	"scenes":[
		{
			"name":"Scene",
			"nodes":[
				0,
				1,
				2,
				3,
				4,
				5,
				6
			]
		}
	],
	"nodes":[
		{
			"mesh":0,
			"name":"Cube",
			"scale":[
				1,
				0.672262966632843,
				1.6044821739196777
			]
		},
		{
			"mesh":1,
			"name":"Cube.001",
			"rotation":[
				0.007175855338573456,
				0.3235398530960083,
				0.07033701241016388,
				0.9435693621635437
			],
			"scale":[
				0.36920812726020813,
				0.14826853573322296,
				0.19915996491909027
			],
			"translation":[
				1.2535462379455566,
				-0.03601735830307007,
				-1.3855215311050415
			]
		},
		{
			"mesh":2,
			"name":"Torus",
			"scale":[
				1.5057182312011719,
				0.3945029377937317,
				1.5057182312011719
			],
			"translation":[
				3.031461000442505,
				-0.26168474555015564,
				-2.6824874877929688
			]
		},
		{
			"mesh":3,
			"name":"Cube.002",
			"scale":[
				0.708128035068512,
				0.708128035068512,
				0.5186113715171814
			],
			"translation":[
				0,
				0,
				0.7453842759132385
			]
		},
		{
			"mesh":4,
			"name":"Cube.003",
			"rotation":[
				0,
				0.4088568091392517,
				0,
				0.9125986695289612
			],
			"scale":[
				0.21665441989898682,
				0.30792999267578125,
				1
			],
			"translation":[
				1.6959819793701172,
				0,
				1.8423978090286255
			]
		},
		{
			"mesh":5,
			"name":"Cylinder",
			"scale":[
				0.16327327489852905,
				0.16327327489852905,
				0.16327327489852905
			],
			"translation":[
				3.0364878177642822,
				-0.7548654079437256,
				-2.681746482849121
			]
		},
		{
			"mesh":6,
			"name":"Cube.004",
			"rotation":[
				0,
				-0.3958527445793152,
				0,
				0.9183139801025391
			],
			"scale":[
				0.22133217751979828,
				0.5227472186088562,
				0.22133217751979828
			],
			"translation":[
				3.238111734390259,
				-1.0267040729522705,
				-2.857320785522461
			]
		}
	],
	"materials":[
		{
			"doubleSided":true,
			"name":"Red",
			"pbrMetallicRoughness":{
				"baseColorFactor":[
					0.8002663850784302,
					0.02527548372745514,
					0.042027030140161514,
					1
				],
				"metallicFactor":0,
				"roughnessFactor":0.5
			}
		},
		{
			"doubleSided":true,
			"name":"Wings",
			"pbrMetallicRoughness":{
				"baseColorTexture":{
					"index":0
				},
				"metallicFactor":0,
				"roughnessFactor":0.5
			}
		},
		{
			"doubleSided":true,
			"emissiveFactor":[
				0.699999988079071,
				0.699999988079071,
				0.699999988079071
			],
			"name":"White",
			"pbrMetallicRoughness":{
				"baseColorFactor":[
					0.800000011920929,
					0.800000011920929,
					0.800000011920929,
					1
				],
				"metallicFactor":0,
				"roughnessFactor":0.5
			}
		},
		{
			"doubleSided":true,
			"name":"Gray",
			"pbrMetallicRoughness":{
				"baseColorFactor":[
					0.1643405258655548,
					0.09346989542245865,
					0.09633181244134903,
					1
				],
				"metallicFactor":0,
				"roughnessFactor":0.5
			}
		},
		{
			"doubleSided":true,
			"name":"Screws",
			"pbrMetallicRoughness":{
				"baseColorFactor":[
					0.0949501246213913,
					0.0949501246213913,
					0.0949501246213913,
					1
				],
				"metallicFactor":0,
				"roughnessFactor":0.5
			}
		}
	],
	"meshes":[
		{
			"name":"Mesh",
			"primitives":[
				{
					"attributes":{
						"POSITION":0,
						"NORMAL":1,
						"TEXCOORD_0":2
					},
					"indices":3,
					"material":0
				}
			]
		},
		{
			"name":"Mesh",
			"primitives":[
				{
					"attributes":{
						"POSITION":4,
						"NORMAL":5,
						"TEXCOORD_0":6
					},
					"indices":7,
					"material":0
				}
			]
		},
		{
			"name":"Torus",
			"primitives":[
				{
					"attributes":{
						"POSITION":8,
						"NORMAL":9,
						"TEXCOORD_0":10
					},
					"indices":11,
					"material":1
				}
			]
		},
		{
			"name":"Mesh",
			"primitives":[
				{
					"attributes":{
						"POSITION":12,
						"NORMAL":13,
						"TEXCOORD_0":14
					},
					"indices":15,
					"material":2
				}
			]
		},
		{
			"name":"Mesh",
			"primitives":[
				{
					"attributes":{
						"POSITION":16,
						"NORMAL":17,
						"TEXCOORD_0":18
					},
					"indices":19,
					"material":3
				}
			]
		},
		{
			"name":"Cylinder",
			"primitives":[
				{
					"attributes":{
						"POSITION":20,
						"NORMAL":21,
						"TEXCOORD_0":22
					},
					"indices":23,
					"material":4
				}
			]
		},
		{
			"name":"Mesh",
			"primitives":[
				{
					"attributes":{
						"POSITION":24,
						"NORMAL":25,
						"TEXCOORD_0":26
					},
					"indices":27,
					"material":4
				}
			]
		}
	],
	"textures":[
		{
			"sampler":0,
			"source":0
		}
	],
	"images":[
		{
			"mimeType":"image/png",
			"name":"Wings_Base_Color",
			"uri":"Wings_Base_Color.png"
		}
	],
	"accessors":[
		{
			"bufferView":0,
			"componentType":5126,
			"count":1353,
			"max":[
				1.61861252784729,
				0.9758772253990173,
				1.2375640869140625
			],
			"min":[
				-1.61861252784729,
				-0.8549674153327942,
				-0.9999142289161682
			],
			"type":"VEC3"
		},
		{
			"bufferView":1,
			"componentType":5126,
			"count":1353,
			"type":"VEC3"
		},
		{
			"bufferView":2,
			"componentType":5126,
			"count":1353,
			"type":"VEC2"
		},
		{
			"bufferView":3,
			"componentType":5123,
			"count":5760,
			"type":"SCALAR"
		},
		{
			"bufferView":4,
			"componentType":5126,
			"count":1728,
			"max":[
				6.290733814239502,
				2.853391408920288,
				4.640158653259277
			],
			"min":[
				-7.9685893058776855,
				-9.881139755249023,
				-20.05082893371582
			],
			"type":"VEC3"
		},
		{
			"bufferView":5,
			"componentType":5126,
			"count":1728,
			"type":"VEC3"
		},
		{
			"bufferView":6,
			"componentType":5126,
			"count":1728,
			"type":"VEC2"
		},
		{
			"bufferView":7,
			"componentType":5123,
			"count":2592,
			"type":"SCALAR"
		},
		{
			"bufferView":8,
			"componentType":5126,
			"count":952,
			"max":[
				1.3038703203201294,
				0.5422107577323914,
				4.866937637329102
			],
			"min":[
				-5.33046817779541,
				-0.5422104597091675,
				-1.3038705587387085
			],
			"type":"VEC3"
		},
		{
			"bufferView":9,
			"componentType":5126,
			"count":952,
			"type":"VEC3"
		},
		{
			"bufferView":10,
			"componentType":5126,
			"count":952,
			"type":"VEC2"
		},
		{
			"bufferView":11,
			"componentType":5123,
			"count":4992,
			"type":"SCALAR"
		},
		{
			"bufferView":12,
			"componentType":5126,
			"count":715,
			"max":[
				0.9891840219497681,
				0.9996981620788574,
				0.9995105862617493
			],
			"min":[
				-0.9891840815544128,
				0.5299175977706909,
				-1.7906770706176758
			],
			"type":"VEC3"
		},
		{
			"bufferView":13,
			"componentType":5126,
			"count":715,
			"type":"VEC3"
		},
		{
			"bufferView":14,
			"componentType":5126,
			"count":715,
			"type":"VEC2"
		},
		{
			"bufferView":15,
			"componentType":5123,
			"count":2640,
			"type":"SCALAR"
		},
		{
			"bufferView":16,
			"componentType":5126,
			"count":714,
			"max":[
				2.8956165313720703,
				-0.08108510076999664,
				1.8055006265640259
			],
			"min":[
				-18.59247589111328,
				-3.526074171066284,
				-3.1785659790039062
			],
			"type":"VEC3"
		},
		{
			"bufferView":17,
			"componentType":5126,
			"count":714,
			"type":"VEC3"
		},
		{
			"bufferView":18,
			"componentType":5126,
			"count":714,
			"type":"VEC2"
		},
		{
			"bufferView":19,
			"componentType":5123,
			"count":2592,
			"type":"SCALAR"
		},
		{
			"bufferView":20,
			"componentType":5126,
			"count":784,
			"max":[
				1.0000001192092896,
				1,
				33.84979248046875
			],
			"min":[
				-38.195167541503906,
				-1,
				-1
			],
			"type":"VEC3"
		},
		{
			"bufferView":21,
			"componentType":5126,
			"count":784,
			"type":"VEC3"
		},
		{
			"bufferView":22,
			"componentType":5126,
			"count":784,
			"type":"VEC2"
		},
		{
			"bufferView":23,
			"componentType":5123,
			"count":3024,
			"type":"SCALAR"
		},
		{
			"bufferView":24,
			"componentType":5126,
			"count":1450,
			"max":[
				19.082029342651367,
				1.0001870393753052,
				39.32933807373047
			],
			"min":[
				-20.400606155395508,
				-1.6053166389465332,
				-0.3286063075065613
			],
			"type":"VEC3"
		},
		{
			"bufferView":25,
			"componentType":5126,
			"count":1450,
			"type":"VEC3"
		},
		{
			"bufferView":26,
			"componentType":5126,
			"count":1450,
			"type":"VEC2"
		},
		{
			"bufferView":27,
			"componentType":5123,
			"count":5184,
			"type":"SCALAR"
		}
	],
	"bufferViews":[
		{
			"buffer":0,
			"byteLength":16236,
			"byteOffset":0,
			"target":34962
		},
		{
			"buffer":0,
			"byteLength":16236,
			"byteOffset":16236,
			"target":34962
		},
		{
			"buffer":0,
			"byteLength":10824,
			"byteOffset":32472,
			"target":34962
		},
		{
			"buffer":0,
			"byteLength":11520,
			"byteOffset":43296,
			"target":34963
		},
		{
			"buffer":0,
			"byteLength":20736,
			"byteOffset":54816,
			"target":34962
		},
		{
			"buffer":0,
			"byteLength":20736,
			"byteOffset":75552,
			"target":34962
		},
		{
			"buffer":0,
			"byteLength":13824,
			"byteOffset":96288,
			"target":34962
		},
		{
			"buffer":0,
			"byteLength":5184,
			"byteOffset":110112,
			"target":34963
		},
		{
			"buffer":0,
			"byteLength":11424,
			"byteOffset":115296,
			"target":34962
		},
		{
			"buffer":0,
			"byteLength":11424,
			"byteOffset":126720,
			"target":34962
		},
		{
			"buffer":0,
			"byteLength":7616,
			"byteOffset":138144,
			"target":34962
		},
		{
			"buffer":0,
			"byteLength":9984,
			"byteOffset":145760,
			"target":34963
		},
		{
			"buffer":0,
			"byteLength":8580,
			"byteOffset":155744,
			"target":34962
		},
		{
			"buffer":0,
			"byteLength":8580,
			"byteOffset":164324,
			"target":34962
		},
		{
			"buffer":0,
			"byteLength":5720,
			"byteOffset":172904,
			"target":34962
		},
		{
			"buffer":0,
			"byteLength":5280,
			"byteOffset":178624,
			"target":34963
		},
		{
			"buffer":0,
			"byteLength":8568,
			"byteOffset":183904,
			"target":34962
		},
		{
			"buffer":0,
			"byteLength":8568,
			"byteOffset":192472,
			"target":34962
		},
		{
			"buffer":0,
			"byteLength":5712,
			"byteOffset":201040,
			"target":34962
		},
		{
			"buffer":0,
			"byteLength":5184,
			"byteOffset":206752,
			"target":34963
		},
		{
			"buffer":0,
			"byteLength":9408,
			"byteOffset":211936,
			"target":34962
		},
		{
			"buffer":0,
			"byteLength":9408,
			"byteOffset":221344,
			"target":34962
		},
		{
			"buffer":0,
			"byteLength":6272,
			"byteOffset":230752,
			"target":34962
		},
		{
			"buffer":0,
			"byteLength":6048,
			"byteOffset":237024,
			"target":34963
		},
		{
			"buffer":0,
			"byteLength":17400,
			"byteOffset":243072,
			"target":34962
		},
		{
			"buffer":0,
			"byteLength":17400,
			"byteOffset":260472,
			"target":34962
		},
		{
			"buffer":0,
			"byteLength":11600,
			"byteOffset":277872,
			"target":34962
		},
		{
			"buffer":0,
			"byteLength":10368,
			"byteOffset":289472,
			"target":34963
		}
	],
	"samplers":[
		{
			"magFilter":9729,
			"minFilter":9987
		}
	],
	"buffers":[
		{
			"byteLength":299840,
			"uri":"Drone.bin"
		}
	]
}
