{
	"asset":{
		"generator":"Khronos glTF Blender I/O v4.5.48",
		"version":"2.0"
	},
	"scene":0,
	"scenes":[
		{
			"name":"Scene",
			"nodes":[
				0,
				1,
				2,
				3,
				4,
				5,
				6,
				7,
				8,
				9,
				10,
				11,
				12,
				13
			]
		}
	],
	"nodes":[
		{
			"mesh":0,
			"name":"Body"
		},
		{
			"mesh":1,
			"name":"Button_Up",
			"translation":[
				-1.2081600427627563,
				1.188099980354309,
				0.36558616161346436
			]
		},
		{
			"mesh":2,
			"name":"Button_Left",
			"translation":[
				-1.4430999755859375,
				0.955610990524292,
				0.36584919691085815
			]
		},
		{
			"mesh":3,
			"name":"Button_Down",
			"translation":[
				-1.2106090784072876,
				0.7206748127937317,
				0.36611199378967285
			]
		},
		{
			"mesh":4,
			"name":"Button_Y",
			"translation":[
				1.1942685842514038,
				1.2661375999450684,
				0.37470299005508423
			]
		},
		{
			"mesh":5,
			"name":"Button_X",
			"translation":[
				0.8800681233406067,
				0.953245222568512,
				0.37470296025276184
			]
		},
		{
			"mesh":6,
			"name":"Button_A",
			"translation":[
				1.192960500717163,
				0.6390447020530701,
				0.37470293045043945
			]
		},
		{
			"mesh":7,
			"name":"Button_B",
			"translation":[
				1.507161021232605,
				0.9519370794296265,
				0.37470299005508423
			]
		},
		{
			"mesh":8,
			"name":"Button_RB",
			"rotation":[
				0.16318358480930328,
				0,
				0,
				0.9865957498550415
			],
			"scale":[
				0.432221919298172,
				0.1493505835533142,
				0.20209045708179474
			],
			"translation":[
				0.8232356309890747,
				1.7078438997268677,
				-0.05131106451153755
			]
		},
		{
			"mesh":9,
			"name":"Button_RT",
			"rotation":[
				0.45697227120399475,
				0,
				0,
				0.8894809484481812
			],
			"scale":[
				0.24432498216629028,
				0.18666431307792664,
				0.1572216898202896
			],
			"translation":[
				1.0548186302185059,
				1.9236125946044922,
				-0.17888081073760986
			]
		},
		{
			"mesh":10,
			"name":"Stick_R",
			"rotation":[
				0.7071068286895752,
				0,
				0,
				0.7071068286895752
			],
			"scale":[
				0.2216147929430008,
				0.05213392898440361,
				0.2216147929430008
			],
			"translation":[
				0.5944982171058655,
				0.24581171572208405,
				0.289959192276001
			]
		},
		{
			"mesh":11,
			"name":"Stick_L",
			"rotation":[
				0.7071068286895752,
				0,
				0,
				0.7071068286895752
			],
			"scale":[
				0.2216147929430008,
				0.05213392898440361,
				0.2216147929430008
			],
			"translation":[
				-0.594498336315155,
				0.24581168591976166,
				0.28995922207832336
			]
		},
		{
			"mesh":12,
			"name":"Button_LB",
			"rotation":[
				0.16318358480930328,
				0,
				0,
				0.9865957498550415
			],
			"scale":[
				0.432221919298172,
				0.1493505835533142,
				0.20209045708179474
			],
			"translation":[
				-0.8232357501983643,
				1.7078437805175781,
				-0.05131106078624725
			]
		},
		{
			"mesh":13,
			"name":"Button_LT",
			"rotation":[
				0.45697227120399475,
				0,
				0,
				0.8894809484481812
			],
			"scale":[
				0.24432498216629028,
				0.18666431307792664,
				0.1572216898202896
			],
			"translation":[
				-1.0548186302185059,
				1.923612356185913,
				-0.17888063192367554
			]
		}
	],
	"materials":[
		{
			"doubleSided":true,
			"name":"Body",
			"pbrMetallicRoughness":{
				"baseColorFactor":[
					0.07390613853931427,
					0.07390613853931427,
					0.07390613853931427,
					1
				],
				"metallicFactor":0,
				"roughnessFactor":0.5
			}
		},
		{
			"doubleSided":true,
			"name":"Material.001",
			"pbrMetallicRoughness":{
				"baseColorTexture":{
					"index":0
				},
				"metallicFactor":0,
				"roughnessFactor":0.5
			}
		},
		{
			"doubleSided":true,
			"name":"Material",
			"pbrMetallicRoughness":{
				"baseColorTexture":{
					"index":1
				},
				"metallicFactor":0,
				"roughnessFactor":0.5
			}
		},
		{
			"doubleSided":true,
			"name":"Stick Bottom",
			"pbrMetallicRoughness":{
				"baseColorFactor":[
					0.014998925849795341,
					0.014998925849795341,
					0.014998925849795341,
					1
				],
				"metallicFactor":0,
				"roughnessFactor":0.5
			}
		},
		{
			"doubleSided":true,
			"name":"Stick",
			"pbrMetallicRoughness":{
				"baseColorFactor":[
					0.023114344105124474,
					0.023114344105124474,
					0.023114344105124474,
					1
				],
				"metallicFactor":0,
				"roughnessFactor":0.5
			}
		},
		{
			"doubleSided":true,
			"name":"StickCenter",
			"pbrMetallicRoughness":{
				"baseColorFactor":[
					0.02004367858171463,
					0.02004367858171463,
					0.02004367858171463,
					1
				],
				"metallicFactor":0,
				"roughnessFactor":0.5
			}
		}
	],
	"meshes":[
		{
			"name":"Cube.001",
			"primitives":[
				{
					"attributes":{
						"POSITION":0,
						"NORMAL":1,
						"TEXCOORD_0":2
					},
					"indices":3,
					"material":0
				}
			]
		},
		{
			"name":"Button_RT.001",
			"primitives":[
				{
					"attributes":{
						"POSITION":4,
						"NORMAL":5,
						"TEXCOORD_0":6
					},
					"indices":7,
					"material":1
				}
			]
		},
		{
			"name":"Button_Left",
			"primitives":[
				{
					"attributes":{
						"POSITION":8,
						"NORMAL":9,
						"TEXCOORD_0":10
					},
					"indices":7,
					"material":1
				}
			]
		},
		{
			"name":"Button_Down",
			"primitives":[
				{
					"attributes":{
						"POSITION":11,
						"NORMAL":12,
						"TEXCOORD_0":13
					},
					"indices":7,
					"material":1
				}
			]
		},
		{
			"name":"Button_Y",
			"primitives":[
				{
					"attributes":{
						"POSITION":14,
						"NORMAL":15,
						"TEXCOORD_0":16
					},
					"indices":17,
					"material":2
				}
			]
		},
		{
			"name":"Button_X",
			"primitives":[
				{
					"attributes":{
						"POSITION":18,
						"NORMAL":19,
						"TEXCOORD_0":20
					},
					"indices":21,
					"material":2
				}
			]
		},
		{
			"name":"Button_A",
			"primitives":[
				{
					"attributes":{
						"POSITION":22,
						"NORMAL":23,
						"TEXCOORD_0":24
					},
					"indices":25,
					"material":2
				}
			]
		},
		{
			"name":"Button_B",
			"primitives":[
				{
					"attributes":{
						"POSITION":26,
						"NORMAL":27,
						"TEXCOORD_0":28
					},
					"indices":25,
					"material":2
				}
			]
		},
		{
			"name":"Button_RB",
			"primitives":[
				{
					"attributes":{
						"POSITION":29,
						"NORMAL":30,
						"TEXCOORD_0":31
					},
					"indices":32,
					"material":3
				}
			]
		},
		{
			"name":"Button_RT",
			"primitives":[
				{
					"attributes":{
						"POSITION":33,
						"NORMAL":34,
						"TEXCOORD_0":35
					},
					"indices":36,
					"material":3
				}
			]
		},
		{
			"name":"Mesh",
			"primitives":[
				{
					"attributes":{
						"POSITION":37,
						"NORMAL":38,
						"TEXCOORD_0":39
					},
					"indices":40,
					"material":4
				},
				{
					"attributes":{
						"POSITION":41,
						"NORMAL":42,
						"TEXCOORD_0":43
					},
					"indices":44,
					"material":3
				},
				{
					"attributes":{
						"POSITION":45,
						"NORMAL":46,
						"TEXCOORD_0":47
					},
					"indices":48,
					"material":5
				}
			]
		},
		{
			"name":"Mesh",
			"primitives":[
				{
					"attributes":{
						"POSITION":49,
						"NORMAL":50,
						"TEXCOORD_0":51
					},
					"indices":52,
					"material":4
				},
				{
					"attributes":{
						"POSITION":53,
						"NORMAL":54,
						"TEXCOORD_0":55
					},
					"indices":56,
					"material":5
				},
				{
					"attributes":{
						"POSITION":57,
						"NORMAL":58,
						"TEXCOORD_0":59
					},
					"indices":60,
					"material":3
				}
			]
		},
		{
			"name":"Button_LB",
			"primitives":[
				{
					"attributes":{
						"POSITION":61,
						"NORMAL":62,
						"TEXCOORD_0":63
					},
					"indices":64,
					"material":3
				}
			]
		},
		{
			"name":"Button_LT",
			"primitives":[
				{
					"attributes":{
						"POSITION":65,
						"NORMAL":66,
						"TEXCOORD_0":67
					},
					"indices":68,
					"material":3
				}
			]
		}
	],
	"textures":[
		{
			"sampler":0,
			"source":0
		},
		{
			"sampler":0,
			"source":1
		}
	],
	"images":[
		{
			"mimeType":"image/png",
			"name":"triangles",
			"uri":"triangles.png"
		},
		{
			"mimeType":"image/png",
			"name":"rounds",
			"uri":"rounds.png"
		}
	],
	"accessors":[
		{
			"bufferView":0,
			"componentType":5126,
			"count":3322,
			"max":[
				2.4468748569488525,
				1.8304463624954224,
				0.4875754415988922
			],
			"min":[
				-2.4468748569488525,
				-1.0956871509552002,
				-0.9835627675056458
			],
			"type":"VEC3"
		},
		{
			"bufferView":1,
			"componentType":5126,
			"count":3322,
			"type":"VEC3"
		},
		{
			"bufferView":2,
			"componentType":5126,
			"count":3322,
			"type":"VEC2"
		},
		{
			"bufferView":3,
			"componentType":5123,
			"count":14424,
			"type":"SCALAR"
		},
		{
			"bufferView":4,
			"componentType":5126,
			"count":112,
			"max":[
				0.15868036448955536,
				0.12938697636127472,
				0.15868033468723297
			],
			"min":[
				-0.15868033468723297,
				-0.18797369301319122,
				-0.15868031978607178
			],
			"type":"VEC3"
		},
		{
			"bufferView":5,
			"componentType":5126,
			"count":112,
			"type":"VEC3"
		},
		{
			"bufferView":6,
			"componentType":5126,
			"count":112,
			"type":"VEC2"
		},
		{
			"bufferView":7,
			"componentType":5123,
			"count":492,
			"type":"SCALAR"
		},
		{
			"bufferView":8,
			"componentType":5126,
			"count":112,
			"max":[
				0.18797370791435242,
				0.15868039429187775,
				0.15868034958839417
			],
			"min":[
				-0.1293870210647583,
				-0.15868034958839417,
				-0.15868037939071655
			],
			"type":"VEC3"
		},
		{
			"bufferView":9,
			"componentType":5126,
			"count":112,
			"type":"VEC3"
		},
		{
			"bufferView":10,
			"componentType":5126,
			"count":112,
			"type":"VEC2"
		},
		{
			"bufferView":11,
			"componentType":5126,
			"count":112,
			"max":[
				0.15868031978607178,
				0.18797370791435242,
				0.15868037939071655
			],
			"min":[
				-0.15868040919303894,
				-0.12938706576824188,
				-0.15868037939071655
			],
			"type":"VEC3"
		},
		{
			"bufferView":12,
			"componentType":5126,
			"count":112,
			"type":"VEC3"
		},
		{
			"bufferView":13,
			"componentType":5126,
			"count":112,
			"type":"VEC2"
		},
		{
			"bufferView":14,
			"componentType":5126,
			"count":83,
			"max":[
				0.14618659019470215,
				0.14618659019470215,
				0.14618659019470215
			],
			"min":[
				-0.14618659019470215,
				-0.14618659019470215,
				-0.14618659019470215
			],
			"type":"VEC3"
		},
		{
			"bufferView":15,
			"componentType":5126,
			"count":83,
			"type":"VEC3"
		},
		{
			"bufferView":16,
			"componentType":5126,
			"count":83,
			"type":"VEC2"
		},
		{
			"bufferView":17,
			"componentType":5123,
			"count":276,
			"type":"SCALAR"
		},
		{
			"bufferView":18,
			"componentType":5126,
			"count":83,
			"max":[
				0.14618664979934692,
				0.14618653059005737,
				0.14618661999702454
			],
			"min":[
				-0.14618664979934692,
				-0.14618659019470215,
				-0.14618661999702454
			],
			"type":"VEC3"
		},
		{
			"bufferView":19,
			"componentType":5126,
			"count":83,
			"type":"VEC3"
		},
		{
			"bufferView":20,
			"componentType":5126,
			"count":83,
			"type":"VEC2"
		},
		{
			"bufferView":21,
			"componentType":5123,
			"count":276,
			"type":"SCALAR"
		},
		{
			"bufferView":22,
			"componentType":5126,
			"count":83,
			"max":[
				0.14618659019470215,
				0.14618664979934692,
				0.14618664979934692
			],
			"min":[
				-0.14618659019470215,
				-0.14618661999702454,
				-0.14618660509586334
			],
			"type":"VEC3"
		},
		{
			"bufferView":23,
			"componentType":5126,
			"count":83,
			"type":"VEC3"
		},
		{
			"bufferView":24,
			"componentType":5126,
			"count":83,
			"type":"VEC2"
		},
		{
			"bufferView":25,
			"componentType":5123,
			"count":276,
			"type":"SCALAR"
		},
		{
			"bufferView":26,
			"componentType":5126,
			"count":83,
			"max":[
				0.14618659019470215,
				0.14618659019470215,
				0.14618664979934692
			],
			"min":[
				-0.14618659019470215,
				-0.14618659019470215,
				-0.14618660509586334
			],
			"type":"VEC3"
		},
		{
			"bufferView":27,
			"componentType":5126,
			"count":83,
			"type":"VEC3"
		},
		{
			"bufferView":28,
			"componentType":5126,
			"count":83,
			"type":"VEC2"
		},
		{
			"bufferView":29,
			"componentType":5126,
			"count":128,
			"max":[
				1.0807732343673706,
				1,
				1.2014961242675781
			],
			"min":[
				-0.9192267656326294,
				-1,
				-1.563941478729248
			],
			"type":"VEC3"
		},
		{
			"bufferView":30,
			"componentType":5126,
			"count":128,
			"type":"VEC3"
		},
		{
			"bufferView":31,
			"componentType":5126,
			"count":128,
			"type":"VEC2"
		},
		{
			"bufferView":32,
			"componentType":5123,
			"count":564,
			"type":"SCALAR"
		},
		{
			"bufferView":33,
			"componentType":5126,
			"count":72,
			"max":[
				1.000000238418579,
				0.000896393961738795,
				0
			],
			"min":[
				-0.9999997615814209,
				-1.9999767541885376,
				-2.7965171337127686
			],
			"type":"VEC3"
		},
		{
			"bufferView":34,
			"componentType":5126,
			"count":72,
			"type":"VEC3"
		},
		{
			"bufferView":35,
			"componentType":5126,
			"count":72,
			"type":"VEC2"
		},
		{
			"bufferView":36,
			"componentType":5123,
			"count":324,
			"type":"SCALAR"
		},
		{
			"bufferView":37,
			"componentType":5126,
			"count":1155,
			"max":[
				0.9746267199516296,
				9.331865310668945,
				0.9746264219284058
			],
			"min":[
				-0.9746267199516296,
				-4.768372150465439e-07,
				-0.9746268391609192
			],
			"type":"VEC3"
		},
		{
			"bufferView":38,
			"componentType":5126,
			"count":1155,
			"type":"VEC3"
		},
		{
			"bufferView":39,
			"componentType":5126,
			"count":1155,
			"type":"VEC2"
		},
		{
			"bufferView":40,
			"componentType":5123,
			"count":4608,
			"type":"SCALAR"
		},
		{
			"bufferView":41,
			"componentType":5126,
			"count":1215,
			"max":[
				1.1799134016036987,
				5.101982593536377,
				1.2132315635681152
			],
			"min":[
				-1.1799131631851196,
				-4.929347991943359,
				-1.2132313251495361
			],
			"type":"VEC3"
		},
		{
			"bufferView":42,
			"componentType":5126,
			"count":1215,
			"type":"VEC3"
		},
		{
			"bufferView":43,
			"componentType":5126,
			"count":1215,
			"type":"VEC2"
		},
		{
			"bufferView":44,
			"componentType":5123,
			"count":5952,
			"type":"SCALAR"
		},
		{
			"bufferView":45,
			"componentType":5126,
			"count":364,
			"max":[
				0.6995871067047119,
				9.52578353881836,
				0.6865535974502563
			],
			"min":[
				-0.6530847549438477,
				8.838061332702637,
				-0.6661180853843689
			],
			"type":"VEC3"
		},
		{
			"bufferView":46,
			"componentType":5126,
			"count":364,
			"type":"VEC3"
		},
		{
			"bufferView":47,
			"componentType":5126,
			"count":364,
			"type":"VEC2"
		},
		{
			"bufferView":48,
			"componentType":5123,
			"count":1536,
			"type":"SCALAR"
		},
		{
			"bufferView":49,
			"componentType":5126,
			"count":1166,
			"max":[
				0.9746271371841431,
				9.331866264343262,
				0.974626362323761
			],
			"min":[
				-0.9746261835098267,
				-4.768372718899627e-07,
				-0.9746268391609192
			],
			"type":"VEC3"
		},
		{
			"bufferView":50,
			"componentType":5126,
			"count":1166,
			"type":"VEC3"
		},
		{
			"bufferView":51,
			"componentType":5126,
			"count":1166,
			"type":"VEC2"
		},
		{
			"bufferView":52,
			"componentType":5123,
			"count":4608,
			"type":"SCALAR"
		},
		{
			"bufferView":53,
			"componentType":5126,
			"count":364,
			"max":[
				0.6530853509902954,
				9.525781631469727,
				0.6865534782409668
			],
			"min":[
				-0.6995863318443298,
				8.83806037902832,
				-0.6661182045936584
			],
			"type":"VEC3"
		},
		{
			"bufferView":54,
			"componentType":5126,
			"count":364,
			"type":"VEC3"
		},
		{
			"bufferView":55,
			"componentType":5126,
			"count":364,
			"type":"VEC2"
		},
		{
			"bufferView":56,
			"componentType":5123,
			"count":1536,
			"type":"SCALAR"
		},
		{
			"bufferView":57,
			"componentType":5126,
			"count":1218,
			"max":[
				1.1799136400222778,
				5.101982116699219,
				1.2132278680801392
			],
			"min":[
				-1.1799129247665405,
				-4.929347991943359,
				-1.2132279872894287
			],
			"type":"VEC3"
		},
		{
			"bufferView":58,
			"componentType":5126,
			"count":1218,
			"type":"VEC3"
		},
		{
			"bufferView":59,
			"componentType":5126,
			"count":1218,
			"type":"VEC2"
		},
		{
			"bufferView":60,
			"componentType":5123,
			"count":5952,
			"type":"SCALAR"
		},
		{
			"bufferView":61,
			"componentType":5126,
			"count":128,
			"max":[
				0.9192266464233398,
				1.0000001192092896,
				1.2014963626861572
			],
			"min":[
				-1.0807733535766602,
				-1.0000001192092896,
				-1.563941478729248
			],
			"type":"VEC3"
		},
		{
			"bufferView":62,
			"componentType":5126,
			"count":128,
			"type":"VEC3"
		},
		{
			"bufferView":63,
			"componentType":5126,
			"count":128,
			"type":"VEC2"
		},
		{
			"bufferView":64,
			"componentType":5123,
			"count":564,
			"type":"SCALAR"
		},
		{
			"bufferView":65,
			"componentType":5126,
			"count":72,
			"max":[
				1,
				0.0008961554849520326,
				-7.748603820800781e-07
			],
			"min":[
				-1,
				-1.9999768733978271,
				-2.796517848968506
			],
			"type":"VEC3"
		},
		{
			"bufferView":66,
			"componentType":5126,
			"count":72,
			"type":"VEC3"
		},
		{
			"bufferView":67,
			"componentType":5126,
			"count":72,
			"type":"VEC2"
		},
		{
			"bufferView":68,
			"componentType":5123,
			"count":324,
			"type":"SCALAR"
		}
	],
	"bufferViews":[
		{
			"buffer":0,
			"byteLength":39864,
			"byteOffset":0,
			"target":34962
		},
		{
			"buffer":0,
			"byteLength":39864,
			"byteOffset":39864,
			"target":34962
		},
		{
			"buffer":0,
			"byteLength":26576,
			"byteOffset":79728,
			"target":34962
		},
		{
			"buffer":0,
			"byteLength":28848,
			"byteOffset":106304,
			"target":34963
		},
		{
			"buffer":0,
			"byteLength":1344,
			"byteOffset":135152,
			"target":34962
		},
		{
			"buffer":0,
			"byteLength":1344,
			"byteOffset":136496,
			"target":34962
		},
		{
			"buffer":0,
			"byteLength":896,
			"byteOffset":137840,
			"target":34962
		},
		{
			"buffer":0,
			"byteLength":984,
			"byteOffset":138736,
			"target":34963
		},
		{
			"buffer":0,
			"byteLength":1344,
			"byteOffset":139720,
			"target":34962
		},
		{
			"buffer":0,
			"byteLength":1344,
			"byteOffset":141064,
			"target":34962
		},
		{
			"buffer":0,
			"byteLength":896,
			"byteOffset":142408,
			"target":34962
		},
		{
			"buffer":0,
			"byteLength":1344,
			"byteOffset":143304,
			"target":34962
		},
		{
			"buffer":0,
			"byteLength":1344,
			"byteOffset":144648,
			"target":34962
		},
		{
			"buffer":0,
			"byteLength":896,
			"byteOffset":145992,
			"target":34962
		},
		{
			"buffer":0,
			"byteLength":996,
			"byteOffset":146888,
			"target":34962
		},
		{
			"buffer":0,
			"byteLength":996,
			"byteOffset":147884,
			"target":34962
		},
		{
			"buffer":0,
			"byteLength":664,
			"byteOffset":148880,
			"target":34962
		},
		{
			"buffer":0,
			"byteLength":552,
			"byteOffset":149544,
			"target":34963
		},
		{
			"buffer":0,
			"byteLength":996,
			"byteOffset":150096,
			"target":34962
		},
		{
			"buffer":0,
			"byteLength":996,
			"byteOffset":151092,
			"target":34962
		},
		{
			"buffer":0,
			"byteLength":664,
			"byteOffset":152088,
			"target":34962
		},
		{
			"buffer":0,
			"byteLength":552,
			"byteOffset":152752,
			"target":34963
		},
		{
			"buffer":0,
			"byteLength":996,
			"byteOffset":153304,
			"target":34962
		},
		{
			"buffer":0,
			"byteLength":996,
			"byteOffset":154300,
			"target":34962
		},
		{
			"buffer":0,
			"byteLength":664,
			"byteOffset":155296,
			"target":34962
		},
		{
			"buffer":0,
			"byteLength":552,
			"byteOffset":155960,
			"target":34963
		},
		{
			"buffer":0,
			"byteLength":996,
			"byteOffset":156512,
			"target":34962
		},
		{
			"buffer":0,
			"byteLength":996,
			"byteOffset":157508,
			"target":34962
		},
		{
			"buffer":0,
			"byteLength":664,
			"byteOffset":158504,
			"target":34962
		},
		{
			"buffer":0,
			"byteLength":1536,
			"byteOffset":159168,
			"target":34962
		},
		{
			"buffer":0,
			"byteLength":1536,
			"byteOffset":160704,
			"target":34962
		},
		{
			"buffer":0,
			"byteLength":1024,
			"byteOffset":162240,
			"target":34962
		},
		{
			"buffer":0,
			"byteLength":1128,
			"byteOffset":163264,
			"target":34963
		},
		{
			"buffer":0,
			"byteLength":864,
			"byteOffset":164392,
			"target":34962
		},
		{
			"buffer":0,
			"byteLength":864,
			"byteOffset":165256,
			"target":34962
		},
		{
			"buffer":0,
			"byteLength":576,
			"byteOffset":166120,
			"target":34962
		},
		{
			"buffer":0,
			"byteLength":648,
			"byteOffset":166696,
			"target":34963
		},
		{
			"buffer":0,
			"byteLength":13860,
			"byteOffset":167344,
			"target":34962
		},
		{
			"buffer":0,
			"byteLength":13860,
			"byteOffset":181204,
			"target":34962
		},
		{
			"buffer":0,
			"byteLength":9240,
			"byteOffset":195064,
			"target":34962
		},
		{
			"buffer":0,
			"byteLength":9216,
			"byteOffset":204304,
			"target":34963
		},
		{
			"buffer":0,
			"byteLength":14580,
			"byteOffset":213520,
			"target":34962
		},
		{
			"buffer":0,
			"byteLength":14580,
			"byteOffset":228100,
			"target":34962
		},
		{
			"buffer":0,
			"byteLength":9720,
			"byteOffset":242680,
			"target":34962
		},
		{
			"buffer":0,
			"byteLength":11904,
			"byteOffset":252400,
			"target":34963
		},
		{
			"buffer":0,
			"byteLength":4368,
			"byteOffset":264304,
			"target":34962
		},
		{
			"buffer":0,
			"byteLength":4368,
			"byteOffset":268672,
			"target":34962
		},
		{
			"buffer":0,
			"byteLength":2912,
			"byteOffset":273040,
			"target":34962
		},
		{
			"buffer":0,
			"byteLength":3072,
			"byteOffset":275952,
			"target":34963
		},
		{
			"buffer":0,
			"byteLength":13992,
			"byteOffset":279024,
			"target":34962
		},
		{
			"buffer":0,
			"byteLength":13992,
			"byteOffset":293016,
			"target":34962
		},
		{
			"buffer":0,
			"byteLength":9328,
			"byteOffset":307008,
			"target":34962
		},
		{
			"buffer":0,
			"byteLength":9216,
			"byteOffset":316336,
			"target":34963
		},
		{
			"buffer":0,
			"byteLength":4368,
			"byteOffset":325552,
			"target":34962
		},
		{
			"buffer":0,
			"byteLength":4368,
			"byteOffset":329920,
			"target":34962
		},
		{
			"buffer":0,
			"byteLength":2912,
			"byteOffset":334288,
			"target":34962
		},
		{
			"buffer":0,
			"byteLength":3072,
			"byteOffset":337200,
			"target":34963
		},
		{
			"buffer":0,
			"byteLength":14616,
			"byteOffset":340272,
			"target":34962
		},
		{
			"buffer":0,
			"byteLength":14616,
			"byteOffset":354888,
			"target":34962
		},
		{
			"buffer":0,
			"byteLength":9744,
			"byteOffset":369504,
			"target":34962
		},
		{
			"buffer":0,
			"byteLength":11904,
			"byteOffset":379248,
			"target":34963
		},
		{
			"buffer":0,
			"byteLength":1536,
			"byteOffset":391152,
			"target":34962
		},
		{
			"buffer":0,
			"byteLength":1536,
			"byteOffset":392688,
			"target":34962
		},
		{
			"buffer":0,
			"byteLength":1024,
			"byteOffset":394224,
			"target":34962
		},
		{
			"buffer":0,
			"byteLength":1128,
			"byteOffset":395248,
			"target":34963
		},
		{
			"buffer":0,
			"byteLength":864,
			"byteOffset":396376,
			"target":34962
		},
		{
			"buffer":0,
			"byteLength":864,
			"byteOffset":397240,
			"target":34962
		},
		{
			"buffer":0,
			"byteLength":576,
			"byteOffset":398104,
			"target":34962
		},
		{
			"buffer":0,
			"byteLength":648,
			"byteOffset":398680,
			"target":34963
		}
	],
	"samplers":[
		{
			"magFilter":9729,
			"minFilter":9987
		}
	],
	"buffers":[
		{
			"byteLength":399328,
			"uri":"ctrl.bin"
		}
	]
}
